<svg width="256" height="256" viewBox="0 0 256 256" fill="none" xmlns="http://www.w3.org/2000/svg">
<rect width="256" height="256" rx="24" fill="#141414"/>
<path d="M53.767 173.656C50.183 173.656 47.015 172.952 44.263 171.544C41.575 170.136 39.527 168.152 38.119 165.592C36.711 163.096 36.103 160.088 36.295 156.568L37.255 141.976C37.447 139.352 36.903 137.368 35.623 136.024C34.407 134.68 32.327 134.008 29.383 134.008H17.959V122.968H29.383C32.327 122.968 34.407 122.296 35.623 120.952C36.903 119.608 37.447 117.656 37.255 115.096L36.295 100.024C36.103 96.568 36.711 93.592 38.119 91.096C39.527 88.6 41.575 86.68 44.263 85.336C47.015 83.992 50.183 83.32 53.767 83.32H60.391V94.36H55.495C53.191 94.36 51.367 94.904 50.023 95.992C48.743 97.08 48.167 98.808 48.295 101.176L49.255 116.152C49.511 119.928 48.391 122.968 45.895 125.272C43.399 127.576 39.911 128.728 35.431 128.728V128.056C39.847 128.056 43.303 129.24 45.799 131.608C48.359 133.912 49.511 136.984 49.255 140.824L48.295 155.8C48.231 157.912 48.839 159.576 50.119 160.792C51.463 161.944 53.255 162.52 55.495 162.52H60.391V173.656H53.767ZM102.498 163C97.4415 163 93.4735 161.592 90.5935 158.776C87.7775 155.96 86.3695 152.088 86.3695 147.16V121.048H72.0655V110.2H86.3695V95.32H98.4655V110.2H118.722V121.048H98.4655V147.16C98.4655 150.488 100.098 152.152 103.362 152.152H117.762V163H102.498ZM133.18 163V92.92H145.18V130.936H153.532L166.396 110.2H179.836L163.9 135.736L180.124 163H166.396L153.532 141.112H145.18V163H133.18ZM190.647 173.656V162.52H195.543C197.783 162.52 199.575 161.944 200.919 160.792C202.263 159.576 202.871 157.912 202.743 155.8L201.783 140.824C201.527 136.984 202.647 133.912 205.143 131.608C207.703 129.24 211.191 128.056 215.607 128.056V128.728C211.191 128.728 207.703 127.576 205.143 125.272C202.647 122.968 201.527 119.928 201.783 116.152L202.743 101.176C202.871 98.808 202.263 97.08 200.919 95.992C199.639 94.904 197.847 94.36 195.543 94.36H190.647V83.32H197.271C200.855 83.32 203.991 83.992 206.679 85.336C209.431 86.68 211.511 88.6 212.919 91.096C214.327 93.592 214.935 96.568 214.743 100.024L213.783 115.096C213.591 117.656 214.135 119.608 215.415 120.952C216.695 122.296 218.775 122.968 221.655 122.968H233.079V134.008H221.655C218.775 134.008 216.695 134.68 215.415 136.024C214.135 137.368 213.591 139.352 213.783 141.976L214.743 156.568C214.935 160.088 214.327 163.096 212.919 165.592C211.511 168.152 209.431 170.136 206.679 171.544C203.991 172.952 200.855 173.656 197.271 173.656H190.647Z" fill="#447DA6"/>
</svg>
